<svg xmlns="http://www.w3.org/2000/svg" viewBox="0 0 48 48" width="48" height="48"><rect width="48" height="48" fill="#fbd42c" rx="8"/><path fill="#242021" d="M14.72 16.78a8.17 8.17 0 0 1 2.76-6.22A9.56 9.56 0 0 1 24.22 8a9.32 9.32 0 0 1 6.63 2.54 8.28 8.28 0 0 1-1.2 13.15A8.03 8.03 0 0 1 34 31.07a8.21 8.21 0 0 1-2.83 6.4A10.29 10.29 0 0 1 24.04 40a10.34 10.34 0 0 1-7.15-2.58 8.23 8.23 0 0 1-2.89-6.4 8.07 8.07 0 0 1 4.44-7.33 11.01 11.01 0 0 1-2.86-3.21 7.66 7.66 0 0 1-.86-3.7Zm14.75 14.48v-.45a4.45 4.45 0 0 0-1.53-3.5 5.8 5.8 0 0 0-3.99-1.35 5.62 5.62 0 0 0-3.9 1.36 4.84 4.84 0 0 0 .03 7.07 5.85 5.85 0 0 0 4.01 1.36 5.86 5.86 0 0 0 3.87-1.25 4.01 4.01 0 0 0 1.51-3.24Zm-.38-14.34a4.4 4.4 0 0 0-1.4-3.35 4.98 4.98 0 0 0-3.56-1.32 5.02 5.02 0 0 0-3.56 1.3 4.35 4.35 0 0 0-1.39 3.33 4.42 4.42 0 0 0 1.47 3.33 4.96 4.96 0 0 0 3.53 1.39 4.84 4.84 0 0 0 3.47-1.38 4.4 4.4 0 0 0 1.44-3.3Z"/></svg>